<?xml version="1.0" encoding="UTF-8" standalone="no"?>
<!DOCTYPE svg PUBLIC "-//W3C//DTD SVG 1.1//EN" "http://www.w3.org/Graphics/SVG/1.1/DTD/svg11.dtd">
<svg width="100%" height="100%" viewBox="0 0 114 129" version="1.1" xmlns="http://www.w3.org/2000/svg" xmlns:xlink="http://www.w3.org/1999/xlink" xml:space="preserve" xmlns:serif="http://www.serif.com/" style="fill-rule:evenodd;clip-rule:evenodd;stroke-linecap:round;stroke-linejoin:round;stroke-miterlimit:1.5;">
    <g transform="matrix(1,0,0,1,-22.3922,-26.2531)">
        <g transform="matrix(0.475809,0,0,0.475809,-777.761,-711.39)">
            <path d="M1780.74,1708.42L1780.74,1751.08" style="fill:none;stroke:black;stroke-width:16.67px;"/>
        </g>
        <g transform="matrix(0.475809,0,0,0.475809,-762.059,-711.39)">
            <path d="M1780.74,1708.42L1780.74,1751.08" style="fill:none;stroke:black;stroke-width:16.67px;"/>
        </g>
        <g transform="matrix(0.475809,0,0,0.475809,-746.358,-711.39)">
            <path d="M1780.74,1708.42L1780.74,1751.08" style="fill:none;stroke:black;stroke-width:16.67px;"/>
        </g>
        <g transform="matrix(0.475809,0,0,0.475809,-731.132,-711.39)">
            <path d="M1780.74,1708.42L1780.74,1751.08" style="fill:none;stroke:black;stroke-width:16.67px;"/>
        </g>
        <g transform="matrix(1.42071,0,0,1.42071,-3102.4,-504.82)">
            <text x="2220.65px" y="464.509px" style="font-family:'TsukuARdGothic-Regular', 'Tsukushi A Round Gothic', serif;font-size:29.167px;fill:rgb(0,249,0);">user</text>
        </g>
        <g transform="matrix(0.876127,0,0,0.876127,-1380.91,-198.819)">
            <ellipse cx="1681.25" cy="306.029" rx="46.46" ry="45.741" style="fill:rgb(255,253,253);stroke:black;stroke-width:6.79px;"/>
        </g>
        <g transform="matrix(0.592957,0,0,0.589926,-937.931,-118.973)">
            <ellipse cx="1681.25" cy="306.029" rx="46.46" ry="45.741"/>
        </g>
        <g transform="matrix(0.423743,0,0,0.475809,-743.027,-713.01)">
            <path d="M1820.36,1604.1L1963.51,1604.1" style="fill:none;stroke:black;stroke-width:26.4px;"/>
        </g>
    </g>
</svg>
